# xmcd
#
# Track frame offsets:
#	150
#	17681
#	41007
#	55669
#
# Disc length: 983 seconds
#
# Revision: 1
# Processed by: cddbd v1.5PL3 Copyright (c) Steve Scherf et al.
# Submitted via: CDex 1.50Beta5
#
DISCID=2803d504
DTITLE=ジャパハリネット - 物憂げ世情
DYEAR=1900
DGENRE=Rock
TTITLE0=物憂げ世情
TTITLE1=迂回路
TTITLE2=哀情かっぽ
TTITLE3=街
EXTD=
EXTT0=
EXTT1=
EXTT2=
EXTT3=
PLAYORDER=
